# xmcd
#
# Track frame offsets:
#	150
#	21823
#	46674
#	72391
#	98650
#	124703
#	146282
#	172714
#
# Disc length: 2597 seconds
#
# Revision: 1
# Processed by: cddbd v1.4PL0 Copyright (c) Steve Scherf et al.
# Submitted via: audiograbber 1.82.01
#
DISCID=5a0a2308
DTITLE=Saber El Rouba3i - Sidi Mansour
DYEAR=1900
DGENRE=
TTITLE0=Sidi Mansour
TTITLE1=Awal Kaleb
TTITLE2=Kol El Omer
TTITLE3=Fen El Nass
TTITLE4=El Badil
TTITLE5=Erhali
TTITLE6=3azz El Habayeb
TTITLE7=ya3aychik
EXTD=
EXTT0=
EXTT1=
EXTT2=
EXTT3=
EXTT4=
EXTT5=
EXTT6=
EXTT7=
PLAYORDER=
